<svg width="48" height="48" viewBox="0 0 48 48" fill="none" xmlns="http://www.w3.org/2000/svg">
<path d="M24 18.0074C25.1867 18.0074 26.3467 18.3593 27.3334 19.0186C28.3201 19.6779 29.0892 20.615 29.5433 21.7113C29.9974 22.8077 30.1162 24.0141 29.8847 25.178C29.6532 26.3419 29.0818 27.411 28.2426 28.2501C27.4035 29.0892 26.3344 29.6606 25.1705 29.8922C24.0067 30.1237 22.8003 30.0048 21.7039 29.5507C20.6075 29.0966 19.6705 28.3276 19.0112 27.3409C18.3519 26.3542 18 25.1941 18 24.0074C18.002 22.4168 18.6348 20.8918 19.7596 19.767C20.8843 18.6422 22.4093 18.0094 24 18.0074ZM24 15.0074C22.22 15.0074 20.4799 15.5353 18.9999 16.5242C17.5198 17.5132 16.3663 18.9188 15.6851 20.5633C15.0039 22.2078 14.8257 24.0174 15.1729 25.7633C15.5202 27.5091 16.3774 29.1127 17.636 30.3714C18.8947 31.6301 20.4984 32.4872 22.2442 32.8345C23.99 33.1818 25.7996 33.0036 27.4442 32.3224C29.0887 31.6412 30.4943 30.4876 31.4832 29.0076C32.4722 27.5275 33 25.7875 33 24.0074C33 21.6205 32.0518 19.3313 30.364 17.6435C28.6761 15.9557 26.3869 15.0074 24 15.0074ZM8.091 10.2194L10.215 8.09845L15.4725 13.3574L13.35 15.4784L8.091 10.2194ZM3 22.5074H10.5V25.5074H3V22.5074ZM8.091 37.7969L13.35 32.5379L15.471 34.6589L10.2135 39.9179L8.091 37.7969ZM22.5 37.5074H25.5V45.0074H22.5V37.5074ZM32.5305 34.6574L34.6515 32.5364L39.9105 37.7954L37.7895 39.9164L32.5305 34.6574ZM37.5 22.5074H45V25.5074H37.5V22.5074ZM32.5305 13.3559L37.7895 8.09695L39.9105 10.2179L34.6515 15.4769L32.5305 13.3559ZM22.5 3.00745H25.5V10.5074H22.5V3.00745Z" fill="#867676"/>
</svg>
