<svg width="37" height="37" viewBox="0 0 37 37" fill="none" xmlns="http://www.w3.org/2000/svg">
<path d="M36.0747 22.0397C36.0039 21.8101 35.8625 21.6086 35.6706 21.4639C35.4788 21.3192 35.2462 21.2386 35.006 21.2335H34.9872L34.6685 21.2897C31.9196 22.0494 29.0185 22.0664 26.2609 21.339C23.5033 20.6116 20.9879 19.166 18.9713 17.1494C16.9548 15.1328 15.5091 12.6174 14.7817 9.85984C14.0543 7.10226 14.0714 4.2011 14.831 1.45223C14.8526 1.36627 14.8651 1.2783 14.8685 1.18973C14.8882 0.95509 14.8312 0.720386 14.7061 0.520897C14.581 0.321408 14.3945 0.167913 14.1747 0.0834838C13.9361 -0.0130685 13.6718 -0.0262811 13.4247 0.0459836C10.3343 0.910507 7.52423 2.56929 5.27409 4.85726C3.02394 7.14522 1.41222 9.98258 0.599323 13.087C-0.213575 16.1913 -0.199303 19.4545 0.640719 22.5516C1.48074 25.6487 3.11722 28.4719 5.38729 30.7401C7.65737 33.0083 10.4819 34.6424 13.5797 35.4799C16.6775 36.3173 19.9407 36.3289 23.0444 35.5134C26.1481 34.698 28.9841 33.0839 31.2702 30.8319C33.5563 28.5798 35.2128 25.7683 36.0747 22.6772C36.1313 22.4685 36.1313 22.2485 36.0747 22.0397ZM18.3747 33.871C14.6421 33.871 11.0251 32.5762 8.14063 30.2073C5.25611 27.8384 3.28275 24.5422 2.55712 20.8808C1.83148 17.2194 2.39852 13.4197 4.16151 10.1297C5.92451 6.83974 8.77426 4.26326 12.2247 2.83973C11.7681 5.7087 11.9975 8.64502 12.8942 11.4082C13.7909 14.1715 15.3293 16.683 17.3835 18.7372C19.4377 20.7914 21.9492 22.3298 24.7125 23.2265C27.4757 24.1232 30.412 24.3526 33.281 23.896C32.0611 26.8462 29.9938 29.3685 27.3406 31.1441C24.6873 32.9196 21.5672 33.8685 18.3747 33.871Z" fill="#867676"/>
</svg>
